<svg width="564" height="455" viewBox="0 0 564 455" fill="none" xmlns="http://www.w3.org/2000/svg">
<g clip-path="url(#clip0_1_169)">
<path d="M559.138 0H4.86219C2.17694 0 0.00012207 2.17639 0.00012207 4.86111V40.8333C0.00012207 43.5181 2.17694 45.6944 4.86219 45.6944H559.138C561.823 45.6944 564 43.5181 564 40.8333V4.86111C564 2.17639 561.823 0 559.138 0Z" fill="#F3F3F3"/>
<path d="M361.738 20.4166H337.428C336.354 20.4166 335.483 21.2872 335.483 22.3611V24.3055C335.483 25.3794 336.354 26.25 337.428 26.25H361.738C362.812 26.25 363.683 25.3794 363.683 24.3055V22.3611C363.683 21.2872 362.812 20.4166 361.738 20.4166Z" fill="#C4C4C4"/>
<path d="M267.414 20.4166H231.434C230.36 20.4166 229.49 21.2872 229.49 22.3611V24.3055C229.49 25.3794 230.36 26.25 231.434 26.25H267.414C268.488 26.25 269.359 25.3794 269.359 24.3055V22.3611C269.359 21.2872 268.488 20.4166 267.414 20.4166Z" fill="#2164E1"/>
<path d="M322.841 20.4166H282C280.926 20.4166 280.055 21.2872 280.055 22.3611V24.3055C280.055 25.3794 280.926 26.25 282 26.25H322.841C323.915 26.25 324.786 25.3794 324.786 24.3055V22.3611C324.786 21.2872 323.915 20.4166 322.841 20.4166Z" fill="#C4C4C4"/>
<path d="M73.9035 14.5834H22.3656C20.7545 14.5834 19.4484 15.8892 19.4484 17.5V29.1667C19.4484 30.7775 20.7545 32.0834 22.3656 32.0834H73.9035C75.5147 32.0834 76.8208 30.7775 76.8208 29.1667V17.5C76.8208 15.8892 75.5147 14.5834 73.9035 14.5834Z" fill="#C4C4C4"/>
<path d="M521.214 14.5834H508.573C507.498 14.5834 506.628 15.4539 506.628 16.5278V29.1667C506.628 30.2406 507.498 31.1112 508.573 31.1112H521.214C522.288 31.1112 523.159 30.2406 523.159 29.1667V16.5278C523.159 15.4539 522.288 14.5834 521.214 14.5834Z" fill="#C4C4C4"/>
<path d="M493.986 14.5834H481.345C480.271 14.5834 479.4 15.4539 479.4 16.5278V29.1667C479.4 30.2406 480.271 31.1112 481.345 31.1112H493.986C495.06 31.1112 495.931 30.2406 495.931 29.1667V16.5278C495.931 15.4539 495.06 14.5834 493.986 14.5834Z" fill="#C4C4C4"/>
<path d="M548.441 14.5834H535.8C534.726 14.5834 533.855 15.4539 533.855 16.5278V29.1667C533.855 30.2406 534.726 31.1112 535.8 31.1112H548.441C549.516 31.1112 550.386 30.2406 550.386 29.1667V16.5278C550.386 15.4539 549.516 14.5834 548.441 14.5834Z" fill="#C4C4C4"/>
<path d="M180.869 70H5.8346C3.14936 70 0.972534 72.1764 0.972534 74.8611V251.806C0.972534 254.49 3.14936 256.667 5.8346 256.667H180.869C183.554 256.667 185.731 254.49 185.731 251.806V74.8611C185.731 72.1764 183.554 70 180.869 70Z" fill="#F3F3F3"/>
<path d="M163.366 92.3611H22.3656C20.7545 92.3611 19.4484 93.6669 19.4484 95.2778V117.639C19.4484 119.25 20.7545 120.556 22.3656 120.556H163.366C164.977 120.556 166.283 119.25 166.283 117.639V95.2778C166.283 93.6669 164.977 92.3611 163.366 92.3611Z" fill="#C4C4C4"/>
<path d="M163.366 130.278H22.3656C20.7545 130.278 19.4484 131.584 19.4484 133.194V155.556C19.4484 157.166 20.7545 158.472 22.3656 158.472H163.366C164.977 158.472 166.283 157.166 166.283 155.556V133.194C166.283 131.584 164.977 130.278 163.366 130.278Z" fill="#C4C4C4"/>
<path d="M163.366 168.194H22.3656C20.7545 168.194 19.4484 169.5 19.4484 171.111V193.472C19.4484 195.083 20.7545 196.389 22.3656 196.389H163.366C164.977 196.389 166.283 195.083 166.283 193.472V171.111C166.283 169.5 164.977 168.194 163.366 168.194Z" fill="#C4C4C4"/>
<path d="M163.366 206.111H22.3656C20.7545 206.111 19.4484 207.417 19.4484 209.028V231.389C19.4484 233 20.7545 234.306 22.3656 234.306H163.366C164.977 234.306 166.283 233 166.283 231.389V209.028C166.283 207.417 164.977 206.111 163.366 206.111Z" fill="#2164E1"/>
<path d="M95.6673 224.741L94.706 223.779L96.9229 221.571H86.5013V220.171H96.9229L94.706 217.955L95.6673 217.002L99.5373 220.871L95.6673 224.741Z" fill="white"/>
<path d="M505.655 70H392.855C390.17 70 387.993 72.1764 387.993 74.8611V297.5C387.993 300.185 390.17 302.361 392.855 302.361H505.655C508.34 302.361 510.517 300.185 510.517 297.5V74.8611C510.517 72.1764 508.34 70 505.655 70Z" fill="#F3F3F3"/>
<path d="M433.697 273.194H425.917C424.306 273.194 423 274.5 423 276.111V283.889C423 285.5 424.306 286.806 425.917 286.806H433.697C435.308 286.806 436.614 285.5 436.614 283.889V276.111C436.614 274.5 435.308 273.194 433.697 273.194Z" fill="#C4C4C4"/>
<path d="M412.303 273.194H404.524C402.913 273.194 401.607 274.5 401.607 276.111V283.889C401.607 285.5 402.913 286.806 404.524 286.806H412.303C413.915 286.806 415.221 285.5 415.221 283.889V276.111C415.221 274.5 413.915 273.194 412.303 273.194Z" fill="#C4C4C4"/>
<path d="M455.09 273.194H447.31C445.699 273.194 444.393 274.5 444.393 276.111V283.889C444.393 285.5 445.699 286.806 447.31 286.806H455.09C456.701 286.806 458.007 285.5 458.007 283.889V276.111C458.007 274.5 456.701 273.194 455.09 273.194Z" fill="#C4C4C4"/>
<path d="M444.393 84.5834H403.552C402.478 84.5834 401.607 85.4539 401.607 86.5278V98.1945C401.607 99.2684 402.478 100.139 403.552 100.139H444.393C445.467 100.139 446.338 99.2684 446.338 98.1945V86.5278C446.338 85.4539 445.467 84.5834 444.393 84.5834Z" fill="#2164E1"/>
<path d="M450.228 196.389H403.552C402.478 196.389 401.607 197.259 401.607 198.333V199.306C401.607 200.379 402.478 201.25 403.552 201.25H450.228C451.302 201.25 452.172 200.379 452.172 199.306V198.333C452.172 197.259 451.302 196.389 450.228 196.389Z" fill="#C4C4C4"/>
<path d="M440.503 209.028H404.524C403.45 209.028 402.579 209.898 402.579 210.972V211.945C402.579 213.018 403.45 213.889 404.524 213.889H440.503C441.578 213.889 442.448 213.018 442.448 211.945V210.972C442.448 209.898 441.578 209.028 440.503 209.028Z" fill="#C4C4C4"/>
<path d="M445.366 221.667H404.524C403.45 221.667 402.579 222.537 402.579 223.611V224.583C402.579 225.657 403.45 226.528 404.524 226.528H445.366C446.44 226.528 447.31 225.657 447.31 224.583V223.611C447.31 222.537 446.44 221.667 445.366 221.667Z" fill="#C4C4C4"/>
<path d="M428.835 234.306H403.552C402.478 234.306 401.607 235.176 401.607 236.25V237.222C401.607 238.296 402.478 239.167 403.552 239.167H428.835C429.909 239.167 430.779 238.296 430.779 237.222V236.25C430.779 235.176 429.909 234.306 428.835 234.306Z" fill="#C4C4C4"/>
<path d="M443.907 126.389H404.038C402.695 126.389 401.607 127.477 401.607 128.819V131.736C401.607 133.078 402.695 134.167 404.038 134.167H443.907C445.25 134.167 446.338 133.078 446.338 131.736V128.819C446.338 127.477 445.25 126.389 443.907 126.389Z" fill="#C4C4C4"/>
<path d="M466.272 141.944H404.038C402.695 141.944 401.607 143.033 401.607 144.375V147.292C401.607 148.634 402.695 149.722 404.038 149.722H466.272C467.615 149.722 468.703 148.634 468.703 147.292V144.375C468.703 143.033 467.615 141.944 466.272 141.944Z" fill="#C4C4C4"/>
<path d="M456.548 157.5H404.038C402.695 157.5 401.607 158.588 401.607 159.931V162.847C401.607 164.19 402.695 165.278 404.038 165.278H456.548C457.891 165.278 458.979 164.19 458.979 162.847V159.931C458.979 158.588 457.891 157.5 456.548 157.5Z" fill="#C4C4C4"/>
<path d="M443.907 173.056H404.038C402.695 173.056 401.607 174.144 401.607 175.486V178.403C401.607 179.745 402.695 180.833 404.038 180.833H443.907C445.25 180.833 446.338 179.745 446.338 178.403V175.486C446.338 174.144 445.25 173.056 443.907 173.056Z" fill="#C4C4C4"/>
<path d="M549.414 432.639C549.414 426.732 544.625 421.944 538.717 421.944C532.81 421.944 528.021 426.732 528.021 432.639C528.021 438.545 532.81 443.333 538.717 443.333C544.625 443.333 549.414 438.545 549.414 432.639Z" fill="#C4C4C4"/>
<path d="M0.00012207 285.833C0.00012207 283.149 2.17695 280.972 4.86219 280.972H196.428C199.113 280.972 201.29 283.149 201.29 285.833V356.806H0.00012207V285.833Z" fill="#F3F3F3"/>
<path d="M170.659 298.472H62.7208C61.3781 298.472 60.2897 299.56 60.2897 300.903V303.819C60.2897 305.162 61.3781 306.25 62.7208 306.25H170.659C172.001 306.25 173.09 305.162 173.09 303.819V300.903C173.09 299.56 172.001 298.472 170.659 298.472Z" fill="#C4C4C4"/>
<path d="M181.355 314.028H62.7208C61.3781 314.028 60.2897 315.116 60.2897 316.458V319.375C60.2897 320.717 61.3781 321.805 62.7208 321.805H181.355C182.698 321.805 183.786 320.717 183.786 319.375V316.458C183.786 315.116 182.698 314.028 181.355 314.028Z" fill="#C4C4C4"/>
<path d="M117.176 329.583H62.7208C61.3781 329.583 60.2897 330.671 60.2897 332.014V334.93C60.2897 336.273 61.3781 337.361 62.7208 337.361H117.176C118.519 337.361 119.607 336.273 119.607 334.93V332.014C119.607 330.671 118.519 329.583 117.176 329.583Z" fill="#C4C4C4"/>
<path d="M0.00012207 357.778H100.159V384.028H3.88978C1.74158 384.028 0.00012207 382.286 0.00012207 380.139V357.778Z" fill="#C4C4C4"/>
<path d="M101.131 357.778H201.29V380.139C201.29 382.286 199.548 384.028 197.4 384.028H101.131V357.778Z" fill="#2164E1"/>
<path d="M31.6035 327.639C39.9278 327.639 46.676 320.892 46.676 312.569C46.676 304.247 39.9278 297.5 31.6035 297.5C23.2793 297.5 16.5311 304.247 16.5311 312.569C16.5311 320.892 23.2793 327.639 31.6035 327.639Z" fill="#C4C4C4"/>
<path d="M358.821 70H214.903C212.218 70 210.041 72.1764 210.041 74.8611V157.5C210.041 160.185 212.218 162.361 214.903 162.361H358.821C361.506 162.361 363.683 160.185 363.683 157.5V74.8611C363.683 72.1764 361.506 70 358.821 70Z" fill="#F3F3F3"/>
<path d="M263.524 180.833C265.672 180.833 267.414 179.092 267.414 176.944C267.414 174.797 265.672 173.056 263.524 173.056C261.376 173.056 259.635 174.797 259.635 176.944C259.635 179.092 261.376 180.833 263.524 180.833Z" fill="#C4C4C4"/>
<path d="M275.193 180.833C277.341 180.833 279.083 179.092 279.083 176.944C279.083 174.797 277.341 173.056 275.193 173.056C273.045 173.056 271.303 174.797 271.303 176.944C271.303 179.092 273.045 180.833 275.193 180.833Z" fill="#C4C4C4"/>
<path d="M286.862 180.833C289.01 180.833 290.752 179.092 290.752 176.944C290.752 174.797 289.01 173.056 286.862 173.056C284.714 173.056 282.972 174.797 282.972 176.944C282.972 179.092 284.714 180.833 286.862 180.833Z" fill="#2164E1"/>
<path d="M298.531 180.833C300.679 180.833 302.421 179.092 302.421 176.944C302.421 174.797 300.679 173.056 298.531 173.056C296.383 173.056 294.641 174.797 294.641 176.944C294.641 179.092 296.383 180.833 298.531 180.833Z" fill="#C4C4C4"/>
<path d="M310.2 180.833C312.348 180.833 314.09 179.092 314.09 176.944C314.09 174.797 312.348 173.056 310.2 173.056C308.052 173.056 306.31 174.797 306.31 176.944C306.31 179.092 308.052 180.833 310.2 180.833Z" fill="#C4C4C4"/>
<path d="M559.138 409.306H4.86207C2.17682 409.306 0 411.482 0 414.167V450.139C0 452.824 2.17682 455 4.86207 455H559.138C561.823 455 564 452.824 564 450.139V414.167C564 411.482 561.823 409.306 559.138 409.306Z" fill="#F3F3F3"/>
<path d="M96.2691 428.75H15.5587C14.4846 428.75 13.6139 429.621 13.6139 430.694V434.583C13.6139 435.657 14.4846 436.528 15.5587 436.528H96.2691C97.3432 436.528 98.2139 435.657 98.2139 434.583V430.694C98.2139 429.621 97.3432 428.75 96.2691 428.75Z" fill="#C4C4C4"/>
<path d="M549.414 432.639C549.414 426.733 544.625 421.945 538.717 421.945C532.81 421.945 528.021 426.733 528.021 432.639C528.021 438.545 532.81 443.333 538.717 443.333C544.625 443.333 549.414 438.545 549.414 432.639Z" fill="#C4C4C4"/>
<path fill-rule="evenodd" clip-rule="evenodd" d="M273.488 428.11C273.842 427.706 274.457 427.665 274.862 428.018L282 434.264L289.139 428.018C289.543 427.665 290.158 427.706 290.512 428.11C290.865 428.514 290.824 429.128 290.42 429.482L282.641 436.288C282.273 436.608 281.727 436.608 281.36 436.288L273.581 429.482C273.176 429.128 273.135 428.514 273.488 428.11Z" fill="#2164E1"/>
<path d="M548.441 215.833C545.756 215.833 543.579 213.657 543.579 210.972C543.579 208.287 545.756 206.111 548.441 206.111C551.127 206.111 553.303 208.287 553.303 210.972C553.303 213.657 551.127 215.833 548.441 215.833Z" fill="#2164E1"/>
<path d="M548.441 142.917C545.756 142.917 543.579 140.74 543.579 138.056C543.579 135.371 545.756 133.194 548.441 133.194C551.127 133.194 553.303 135.371 553.303 138.056C553.303 140.74 551.127 142.917 548.441 142.917Z" fill="#C4C4C4"/>
<path d="M548.441 167.222C545.756 167.222 543.579 165.046 543.579 162.361C543.579 159.676 545.756 157.5 548.441 157.5C551.127 157.5 553.303 159.676 553.303 162.361C553.303 165.046 551.127 167.222 548.441 167.222Z" fill="#C4C4C4"/>
<path d="M548.441 191.528C545.756 191.528 543.579 189.351 543.579 186.667C543.579 183.982 545.756 181.806 548.441 181.806C551.127 181.806 553.303 183.982 553.303 186.667C553.303 189.351 551.127 191.528 548.441 191.528Z" fill="#C4C4C4"/>
<path d="M548.441 240.139C545.756 240.139 543.579 237.962 543.579 235.278C543.579 232.593 545.756 230.417 548.441 230.417C551.127 230.417 553.303 232.593 553.303 235.278C553.303 237.962 551.127 240.139 548.441 240.139Z" fill="#C4C4C4"/>
<path d="M548.441 264.444C545.756 264.444 543.579 262.268 543.579 259.583C543.579 256.899 545.756 254.722 548.441 254.722C551.127 254.722 553.303 256.899 553.303 259.583C553.303 262.268 551.127 264.444 548.441 264.444Z" fill="#C4C4C4"/>
<path d="M548.441 288.75C545.756 288.75 543.579 286.574 543.579 283.889C543.579 281.204 545.756 279.028 548.441 279.028C551.127 279.028 553.303 281.204 553.303 283.889C553.303 286.574 551.127 288.75 548.441 288.75Z" fill="#C4C4C4"/>
<path d="M341.317 205.139H231.434C228.212 205.139 225.6 207.751 225.6 210.972V338.333C225.6 341.555 228.212 344.167 231.434 344.167H341.317C344.54 344.167 347.152 341.555 347.152 338.333V210.972C347.152 207.751 344.54 205.139 341.317 205.139Z" fill="#F3F3F3"/>
<path d="M327.043 335.417L318.952 343.507L327.043 351.596L335.134 343.507L327.043 335.417Z" fill="#F3F3F3"/>
<path d="M314.576 229.444H250.397C249.054 229.444 247.966 230.533 247.966 231.875V234.792C247.966 236.134 249.054 237.222 250.397 237.222H314.576C315.918 237.222 317.007 236.134 317.007 234.792V231.875C317.007 230.533 315.918 229.444 314.576 229.444Z" fill="#C4C4C4"/>
<path d="M302.907 249.861H250.397C249.054 249.861 247.966 250.949 247.966 252.292V255.208C247.966 256.551 249.054 257.639 250.397 257.639H302.907C304.25 257.639 305.338 256.551 305.338 255.208V252.292C305.338 250.949 304.25 249.861 302.907 249.861Z" fill="#2164E1"/>
<path d="M310.686 270.278H250.397C249.054 270.278 247.966 271.366 247.966 272.708V275.625C247.966 276.967 249.054 278.056 250.397 278.056H310.686C312.029 278.056 313.117 276.967 313.117 275.625V272.708C313.117 271.366 312.029 270.278 310.686 270.278Z" fill="#C4C4C4"/>
<path d="M291.238 290.694H250.397C249.054 290.694 247.966 291.783 247.966 293.125V296.042C247.966 297.384 249.054 298.472 250.397 298.472H291.238C292.581 298.472 293.669 297.384 293.669 296.042V293.125C293.669 291.783 292.581 290.694 291.238 290.694Z" fill="#C4C4C4"/>
<path d="M291.238 311.111H250.397C249.054 311.111 247.966 312.199 247.966 313.542V316.458C247.966 317.801 249.054 318.889 250.397 318.889H291.238C292.581 318.889 293.669 317.801 293.669 316.458V313.542C293.669 312.199 292.581 311.111 291.238 311.111Z" fill="#C4C4C4"/>
<path d="M326.731 386.944C334.787 386.944 341.317 380.415 341.317 372.361C341.317 364.307 334.787 357.778 326.731 357.778C318.675 357.778 312.145 364.307 312.145 372.361C312.145 380.415 318.675 386.944 326.731 386.944Z" fill="#F3F3F3"/>
<path d="M320.896 374.306C321.971 374.306 322.841 373.435 322.841 372.361C322.841 371.287 321.971 370.417 320.896 370.417C319.822 370.417 318.952 371.287 318.952 372.361C318.952 373.435 319.822 374.306 320.896 374.306Z" fill="#2164E1"/>
<path d="M326.731 374.306C327.805 374.306 328.676 373.435 328.676 372.361C328.676 371.287 327.805 370.417 326.731 370.417C325.657 370.417 324.786 371.287 324.786 372.361C324.786 373.435 325.657 374.306 326.731 374.306Z" fill="#2164E1"/>
<path d="M332.565 374.306C333.64 374.306 334.51 373.435 334.51 372.361C334.51 371.287 333.64 370.417 332.565 370.417C331.491 370.417 330.621 371.287 330.621 372.361C330.621 373.435 331.491 374.306 332.565 374.306Z" fill="#2164E1"/>
<path d="M558.166 326.667H377.297C374.074 326.667 371.462 329.278 371.462 332.5V379.167C371.462 382.388 374.074 385 377.297 385H558.166C561.388 385 564 382.388 564 379.167V332.5C564 329.278 561.388 326.667 558.166 326.667Z" fill="#2164E1"/>
<path d="M474.521 365.91L472.358 363.747L477.346 358.778H453.897V355.628H477.346L472.358 350.641L474.521 348.497L483.229 357.203L474.521 365.91Z" fill="white"/>
<path fill-rule="evenodd" clip-rule="evenodd" d="M546.983 109.861C556.381 109.861 564 102.244 564 92.8473C564 83.4507 556.381 75.8334 546.983 75.8334C537.584 75.8334 529.966 83.4507 529.966 92.8473C529.966 102.244 537.584 109.861 546.983 109.861Z" fill="#F3F3F3"/>
<path fill-rule="evenodd" clip-rule="evenodd" d="M545.099 87.078C544.454 86.6379 543.579 87.1001 543.579 87.8812V98.7855C543.579 99.5662 544.454 100.029 545.099 99.5886L553.097 94.1366C553.663 93.7507 553.663 92.9159 553.097 92.5301L545.099 87.078Z" fill="#2164E1"/>
</g>
<defs>
<clipPath id="clip0_1_169">
<rect width="564" height="455" fill="white"/>
</clipPath>
</defs>
</svg>
